{"title":"Little Buddha (1993) Keanu Reeves (Optional NORDIC SUBS+Eng)","uid":4523883,"size":752734347,"categoryP":"video","categoryS":"movies","magnet":"?xt=urn:btih:23197146450f62f750bc68645a2fe3cff9305d4b&amp;dn=Little+Buddha+%281993%29+Keanu+Reeves+%28Optional+NORDIC+SUBS%2BEng%29&amp;tr=udp%3A%2F%2Ftracker.openbittorrent.com%3A80&amp;tr=udp%3A%2F%2Fopen.demonii.com%3A1337&amp;tr=udp%3A%2F%2Ftracker.coppersurfer.tk%3A6969&amp;tr=udp%3A%2F%2Fexodus.desync.com%3A6969","seeders":7,"leechers":0,"uploader":"Kuthumi","files":-1,"time":1227279856,"description":" &lt;a href=&quot;http://www.imdb.com/title/tt0107426/&quot; rel=&quot;nofollow&quot; target=&quot;_NEW&quot;&gt;http://www.imdb.com/title/tt0107426/&lt;/a&gt;\n\nOptional subtitles in separate idx/sub files:\nDanish, Finnish, Norwegian, Swedish.\nEnglish (in srt format).\n\nWith Keanu Reeves, Bridget Fonda, Chris Isaak and Sogyal Rinpoche.\nWritten and directed by Bernardo Bertolucci.\n\nA young American family in Seattle have their lives changed when a Buddhist monk claims that their young son is a holy man. Keanu Reeves got acclaim for his part as the Buddha, and singer Chris Isaak proved that he could also fill a major part as an actor.\n\nA production error in northern Europe has left us without a retail DVD with multisubs for this film. One edition has only Finnish and Swedish subs, another (rental) has only Danish and Norwegian. I have combined the two editions in this package.\n\nMy new ripping procedure now produces decent quality for such a long film compressed into just 700 MiB. I enclose a sample for ye weak in faith. \n\nWidescreen DVDrip XviD 2-pass 720x288, really great stereo sound AC3.\nBurn tested, runs well in both my standalone DivX players.\n\nMediaInfo analysis of this rip:\nFormat/Info                      : Audio Video Interleave\nFile size                        : 695 MiB\nDuration                         : 2h 14mn\nOveral bit rate                  : 720 Kbps\n\nVideo\nFormat                           : MPEG-4 Visual\nFormat profile                   : Streaming Video@L1\nFormat settings, BVOP            : Yes\nFormat settings, QPel            : No\nFormat settings, GMC             : No warppoints\nFormat settings, Matrix          : Default\nMuxing mode                      : Packet Bitstream\nCodec ID                         : XVID\nCodec ID/Hint                    : XviD\nDuration                         : 2h 14mn\nBit rate                         : 583 Kbps\nWidth                            : 720 pixels\nHeight                           : 288 pixels\nDisplay aspect ratio             : 2.500\nFrame rate                       : 25.000 fps\nResolution                       : 8 bits\nColorimetry                      : 4:2:0\nScan type                        : Progressive\nBits/(Pixel*Frame)               : 0.112\nStream size                      : 563 MiB\nWriting library                  : XviD 1.2.0.dev47 (UTC 2006-11-01)\n\nAudio\nFormat                           : MPEG Audio\nFormat version                   : Version 1\nFormat profile                   : Layer 3\nCodec ID                         : 55\nCodec ID/Hint                    : MP3\nDuration                         : 2h 14mn\nBit rate mode                    : Constant\nBit rate                         : 128 Kbps\nMinimum bit rate                 : 128 Kbps\nChannel(s)                       : 2 channels\nSampling rate                    : 48.0 KHz\nResolution                       : 16 bits\nStream size                      : 124 MiB\nWriting library                  : LAME3.97 \nEncoding settings                : CBR\n\nSource: PAL retail 6.2 GiB (note that PAL/NTSC will give no problems for avi files).","torrent":{"xt":"urn:btih:23197146450f62f750bc68645a2fe3cff9305d4b","amp;dn":"Little+Buddha+%281993%29+Keanu+Reeves+%28Optional+NORDIC+SUBS%2BEng%29","amp;tr":["udp%3A%2F%2Ftracker.openbittorrent.com%3A80","udp%3A%2F%2Fopen.demonii.com%3A1337","udp%3A%2F%2Ftracker.coppersurfer.tk%3A6969","udp%3A%2F%2Fexodus.desync.com%3A6969"],"infoHash":"23197146450f62f750bc68645a2fe3cff9305d4b","infoHashBuffer":{"type":"Buffer","data":[35,25,113,70,69,15,98,247,80,188,104,100,90,47,227,207,249,48,93,75]},"announce":[],"urlList":[]}}